<?xml version="1.0" standalone="no"?>
<!DOCTYPE svg PUBLIC "-//W3C//DTD SVG 20010904//EN"
 "http://www.w3.org/TR/2001/REC-SVG-20010904/DTD/svg10.dtd">
<svg version="1.0" xmlns="http://www.w3.org/2000/svg"
 width="1200.000000pt" height="1200.000000pt" viewBox="0 0 1200.000000 1200.000000"
 preserveAspectRatio="xMidYMid meet">
<metadata>
Created by potrace 1.14, written by Peter Selinger 2001-2017
</metadata>
<g transform="translate(0.000000,1200.000000) scale(0.100000,-0.100000)"
fill="#000000" stroke="none">
<path d="M6970 6953 c-91 -13 -167 -26 -169 -28 -2 -2 6 -72 18 -156 12 -83
20 -153 18 -155 -2 -3 -28 -7 -57 -11 -28 -3 -54 -11 -56 -18 -5 -12 30 -252
37 -259 2 -2 29 0 58 5 30 4 57 6 60 4 2 -3 21 -122 42 -265 42 -290 58 -337
133 -392 25 -18 34 -29 25 -32 -36 -12 -585 -84 -590 -78 -4 4 -25 132 -46
285 -40 278 -40 279 -20 303 37 48 141 96 258 118 l26 6 -23 157 c-13 87 -24
159 -24 161 0 1 -13 2 -28 2 -88 0 -205 -84 -258 -184 -17 -33 -31 -50 -35
-43 -4 7 -10 43 -14 80 -4 45 -12 70 -21 74 -14 5 -298 -32 -313 -41 -4 -3 24
-221 62 -486 40 -277 66 -485 61 -489 -5 -5 -34 -12 -65 -15 l-56 -7 -19 136
-18 136 -32 14 c-17 7 -35 18 -39 25 -4 6 -18 80 -31 164 -27 175 -48 240
-102 311 -49 65 -156 121 -257 135 -145 19 -369 -23 -500 -95 -53 -29 -145
-94 -145 -101 0 -5 118 -184 131 -198 4 -5 27 7 51 26 95 77 200 118 301 118
80 0 120 -31 137 -105 l7 -30 -116 0 c-131 0 -216 -22 -306 -80 -149 -95 -208
-264 -143 -407 50 -107 128 -166 251 -189 76 -14 155 -4 235 31 29 13 42 15
42 7 1 -27 88 -608 92 -612 4 -4 4708 672 4714 678 3 3 -86 630 -90 634 -1 1
-385 -54 -855 -121 -839 -121 -853 -123 -820 -98 86 65 198 216 176 238 -8 9
-232 42 -284 43 -22 1 -33 -4 -33 -13 0 -20 -50 -67 -95 -87 -53 -24 -140 -25
-185 -1 -39 21 -81 86 -65 100 6 5 161 30 345 56 184 26 339 51 343 55 12 12
-11 165 -34 227 -44 118 -133 216 -246 273 -149 74 -380 68 -549 -15 -83 -41
-183 -142 -221 -224 -124 -263 -26 -577 219 -700 44 -22 87 -40 96 -40 45 0
-12 -11 -178 -34 -102 -15 -198 -29 -215 -32 -29 -5 -28 -4 10 19 28 16 39 29
37 43 -3 17 -90 245 -96 251 -1 1 -30 -9 -65 -23 -71 -29 -114 -26 -133 9 -12
22 -69 368 -62 376 2 2 45 10 96 18 50 7 93 15 94 16 3 3 -36 260 -40 264 -2
2 -44 -2 -95 -8 -50 -7 -93 -11 -95 -8 -2 2 -14 69 -25 148 -21 142 -26 162
-39 160 -4 -1 -81 -12 -172 -26z m1236 -430 c32 -23 72 -88 61 -99 -3 -4 -62
-15 -129 -25 -68 -10 -138 -21 -155 -24 -31 -6 -33 -4 -33 25 0 54 44 116 100
139 39 17 123 8 156 -16z m1831 -568 c20 -14 52 -89 42 -99 -2 -2 -17 -6 -34
-8 -24 -2 -30 1 -35 21 -13 54 -70 49 -70 -6 0 -25 18 -45 118 -133 44 -38 68
-101 57 -150 -13 -60 -92 -96 -154 -70 -31 12 -61 62 -61 99 0 17 6 21 34 21
29 0 34 -4 40 -31 5 -26 10 -30 33 -27 24 3 28 8 30 38 3 42 -5 53 -80 110
-69 52 -87 82 -87 149 0 43 4 53 31 75 36 30 101 35 136 11z m-226 -17 c7 -28
64 -450 61 -453 -3 -3 -20 -5 -38 -5 -31 0 -33 2 -77 108 -25 59 -53 126 -62
150 -10 24 -19 41 -21 40 -2 -2 6 -62 16 -133 27 -180 27 -185 -9 -185 -34 0
-28 -21 -67 254 -29 207 -29 206 32 206 31 0 33 -3 79 -115 27 -64 50 -113 52
-111 3 2 -3 52 -11 110 -21 140 -21 136 14 136 17 0 30 -1 31 -2z m-294 -69
c24 -24 33 -59 59 -239 18 -128 13 -157 -31 -186 -40 -26 -108 -24 -139 5 -28
26 -36 58 -62 243 -16 114 -16 118 3 150 34 58 121 72 170 27z m-213 -238 l32
-221 -33 -6 c-19 -4 -35 -5 -37 -3 -3 4 -66 435 -66 451 0 9 64 15 68 6 2 -4
18 -106 36 -227z m-136 181 c3 -31 2 -32 -34 -32 l-37 0 6 -37 c24 -153 50
-354 46 -357 -2 -2 -18 -6 -35 -9 l-31 -6 -28 195 -29 196 -37 -4 c-35 -3 -38
-1 -42 27 -3 16 -4 31 -3 32 3 4 192 31 206 29 9 -1 16 -14 18 -34z m-3669 13
c6 -3 11 -30 11 -59 0 -46 -4 -56 -33 -84 -79 -77 -212 -81 -245 -7 -15 33
-15 40 3 79 16 34 59 64 109 77 34 9 138 5 155 -6z m3452 -240 c38 -120 68
-219 66 -220 -1 -1 -16 -5 -34 -8 -30 -6 -32 -4 -46 36 -7 23 -19 42 -25 41
-7 -1 -25 -2 -42 -2 -29 -2 -30 -3 -30 -52 0 -49 -1 -50 -30 -50 l-30 0 2 233
3 232 40 6 c22 3 44 5 49 5 5 -1 39 -100 77 -221z m-350 -18 c15 -104 29 -190
31 -192 1 -2 28 1 57 6 30 4 56 7 57 6 1 -1 4 -15 6 -32 l3 -30 -75 -13 c-122
-20 -110 -39 -146 213 -18 121 -30 224 -27 228 3 4 19 7 36 5 l32 -3 26 -188z
m-168 153 c21 -17 54 -88 44 -96 -1 -1 -16 -5 -32 -8 -27 -6 -32 -3 -42 24 -8
22 -18 30 -36 30 -30 0 -42 -26 -28 -62 5 -14 39 -48 76 -77 73 -57 95 -95 95
-161 0 -33 -6 -48 -29 -71 -25 -24 -38 -29 -78 -29 -39 0 -54 5 -72 24 -22 24
-44 90 -33 100 12 12 62 6 62 -8 0 -8 8 -24 18 -36 16 -19 22 -21 40 -11 46
25 19 88 -62 146 -83 59 -114 134 -84 201 24 51 115 70 161 34z m-196 -240
c17 -124 31 -225 30 -226 -1 -1 -18 -4 -37 -6 l-35 -3 -64 153 c-35 84 -65
151 -66 150 -2 -2 8 -73 20 -158 12 -85 22 -156 21 -156 0 -1 -15 -5 -31 -8
l-31 -7 -33 227 c-18 124 -30 228 -28 231 3 2 23 5 46 6 l42 2 51 -123 c28
-67 52 -121 53 -120 2 2 -6 59 -16 128 -19 132 -17 143 26 138 18 -3 23 -24
52 -228z m-296 -40 c38 -118 64 -219 60 -223 -5 -5 -21 -7 -37 -5 -24 2 -30 9
-37 41 -8 32 -13 37 -37 37 -51 0 -60 -9 -60 -56 0 -31 -4 -44 -14 -44 -8 0
-21 -3 -30 -6 -14 -5 -16 19 -16 229 l0 236 23 4 c12 3 35 4 52 3 29 -1 29 -1
96 -216z m-292 152 c42 -42 50 -153 12 -176 -5 -3 3 -19 19 -34 20 -21 29 -42
35 -83 3 -29 10 -68 15 -86 6 -24 5 -33 -7 -37 -21 -9 -63 -7 -63 2 0 14 -21
137 -26 154 -6 20 -31 30 -54 23 -15 -5 -16 -12 -4 -93 8 -48 12 -93 9 -99 -2
-7 -18 -13 -34 -13 -35 0 -31 -14 -65 225 -37 254 -38 229 9 236 93 14 125 10
154 -19z m-229 -4 c0 -7 3 -22 6 -34 5 -18 0 -22 -34 -27 l-39 -7 28 -192 c15
-106 27 -194 25 -195 -1 -2 -17 -6 -34 -9 -37 -8 -33 -19 -62 191 -29 210 -24
196 -68 193 -35 -3 -37 -1 -40 28 l-3 31 103 15 c57 9 106 16 111 17 4 0 7 -5
7 -11z m-1804 -60 c9 -18 27 -45 41 -59 l24 -26 -93 -12 c-51 -7 -102 -15
-113 -18 -13 -3 -5 7 20 30 23 19 54 54 69 76 16 23 30 41 32 41 2 0 11 -15
20 -32z m1460 5 c-3 -10 -15 -73 -26 -140 -20 -113 -20 -128 -7 -216 13 -94
13 -96 -7 -101 -50 -14 -52 -11 -65 91 -11 86 -20 111 -72 216 -33 65 -57 122
-54 127 4 6 20 10 36 10 28 0 33 -6 61 -70 17 -38 34 -70 38 -70 5 0 11 31 15
68 8 78 12 88 40 95 38 9 46 7 41 -10z m-258 -55 c-3 -31 -5 -33 -57 -41 -30
-4 -56 -9 -58 -11 -2 -1 0 -27 5 -57 l8 -54 53 3 52 3 -3 -33 c-3 -30 -6 -33
-43 -38 l-40 -5 3 -65 c2 -36 6 -68 10 -72 4 -3 32 -2 61 3 30 4 56 7 58 5 1
-1 5 -16 9 -32 l6 -30 -97 -13 c-53 -7 -98 -11 -100 -9 -6 8 -64 442 -59 447
5 6 130 27 172 30 20 1 23 -3 20 -31z m-238 -1 c0 -2 -14 -43 -30 -92 l-30
-89 64 -138 c36 -76 61 -138 56 -138 -4 0 -21 -3 -37 -6 -29 -6 -30 -4 -74 91
l-44 97 -12 -30 c-9 -23 -10 -45 -2 -91 14 -75 8 -91 -30 -91 -34 0 -28 -21
-66 249 -15 101 -24 189 -21 197 3 8 18 14 35 14 29 0 29 0 43 -92 l14 -93 32
102 c30 93 34 102 60 106 15 2 30 5 35 6 4 0 7 0 7 -2z m-316 -129 c14 -46 46
-146 70 -223 l44 -140 -31 -7 c-40 -8 -45 -5 -53 37 -8 43 -12 46 -57 38 -35
-5 -36 -7 -39 -52 -3 -44 -5 -46 -35 -49 l-31 -3 5 223 c2 123 6 228 8 235 2
6 21 14 42 16 21 2 41 4 45 5 4 1 18 -35 32 -80z m-229 20 c10 -54 63 -423 61
-425 -1 -1 -18 -4 -37 -5 l-34 -3 -14 98 -14 97 -39 0 c-44 0 -42 6 -24 -115
8 -49 12 -92 11 -93 -2 -2 -18 -5 -36 -5 l-33 -2 -27 190 c-15 105 -30 206
-33 226 -6 36 -5 37 29 41 40 5 38 9 54 -106 6 -37 12 -70 14 -72 1 -2 19 -1
38 2 l35 6 -13 87 c-7 47 -13 89 -13 93 0 4 12 9 28 11 15 2 30 5 34 6 4 0 10
-14 13 -31z m-281 -49 c14 -17 26 -37 26 -44 0 -7 3 -20 6 -28 4 -11 -4 -16
-30 -19 -24 -3 -36 0 -36 8 0 23 -35 55 -52 49 -48 -19 -25 -80 52 -140 68
-51 90 -82 97 -133 8 -59 -3 -90 -40 -112 -68 -42 -150 -14 -163 55 -3 19 -7
38 -8 42 0 4 13 10 29 13 26 5 31 2 41 -25 9 -24 17 -30 40 -30 27 0 29 2 28
39 -2 42 -3 44 -104 125 -112 91 -84 230 47 231 34 0 46 -5 67 -31z"/>
<path d="M9412 5813 c-11 -21 25 -291 40 -310 15 -19 46 -16 56 5 11 20 -25
290 -40 310 -15 18 -46 15 -56 -5z"/>
<path d="M8840 5601 l0 -113 27 7 c16 4 30 8 32 11 4 4 -48 195 -55 203 -2 2
-4 -46 -4 -108z"/>
<path d="M7831 5458 l-1 -108 31 0 c30 0 31 1 25 33 -3 17 -17 66 -30 107
l-24 75 -1 -107z"/>
<path d="M7540 5531 c0 -10 3 -39 6 -65 7 -50 28 -61 59 -30 15 16 15 38 -1
97 -8 25 -64 24 -64 -2z"/>
<path d="M6200 5216 l0 -108 27 7 c16 4 29 8 31 10 3 3 -48 187 -54 194 -2 2
-4 -44 -4 -103z"/>
<path d="M2305 6325 c-181 -40 -315 -137 -375 -272 -68 -153 -36 -361 70 -457
76 -69 173 -103 402 -140 81 -14 160 -32 177 -41 38 -19 50 -58 26 -85 -30
-34 -80 -43 -199 -37 -91 4 -131 11 -222 41 -61 20 -114 36 -117 36 -6 0 -101
-285 -109 -324 -9 -53 329 -111 544 -94 237 18 413 118 485 273 24 53 27 72
28 160 0 70 -6 115 -18 151 -59 169 -172 236 -488 289 -171 29 -220 47 -230
85 -14 59 36 90 145 90 84 0 187 -19 267 -49 40 -15 55 -18 60 -9 4 7 31 79
60 161 42 121 49 151 38 158 -24 15 -171 51 -264 65 -110 17 -201 17 -280 -1z"/>
<path d="M4304 6261 c-103 -32 -184 -85 -230 -153 -15 -24 -30 -45 -31 -47 -2
-3 -19 14 -39 38 -57 66 -103 86 -204 86 -146 0 -297 -67 -364 -162 -34 -49
-38 -46 -50 41 l-8 48 -36 -5 c-20 -3 -92 -14 -159 -23 -113 -16 -123 -19
-123 -38 1 -41 137 -966 143 -973 8 -7 338 37 349 46 4 4 -11 130 -33 281 -45
309 -45 322 17 390 44 49 92 67 131 48 58 -28 66 -54 112 -374 23 -164 44
-301 46 -303 3 -2 82 7 176 20 122 17 173 27 177 38 3 7 -12 132 -33 277 -22
156 -35 277 -31 296 10 50 54 105 101 128 40 19 46 20 78 6 21 -8 42 -28 52
-46 10 -20 34 -150 59 -326 24 -162 46 -297 49 -300 7 -7 332 37 348 47 12 7
-85 681 -108 754 -32 102 -76 160 -148 197 -56 29 -162 33 -241 9z"/>
</g>
</svg>
